<?xml version="1.0" encoding="UTF-8" standalone="no"?>
<!-- Created with Inkscape (http://www.inkscape.org/) -->

<svg
   version="1.1"
   id="svg875"
   width="1733.3333"
   height="1733.3333"
   viewBox="0 0 1733.3333 1733.3333"
   sodipodi:docname="LeftHand.svg"
   inkscape:version="1.1 (c68e22c387, 2021-05-23)"
   xmlns:inkscape="http://www.inkscape.org/namespaces/inkscape"
   xmlns:sodipodi="http://sodipodi.sourceforge.net/DTD/sodipodi-0.dtd"
   xmlns="http://www.w3.org/2000/svg"
   xmlns:svg="http://www.w3.org/2000/svg">
  <defs
     id="defs879" />
  <sodipodi:namedview
     id="namedview877"
     pagecolor="#ffffff"
     bordercolor="#666666"
     borderopacity="1.0"
     inkscape:pageshadow="2"
     inkscape:pageopacity="0.0"
     inkscape:pagecheckerboard="0"
     showgrid="false"
     inkscape:zoom="0.33941127"
     inkscape:cx="608.40643"
     inkscape:cy="746.8815"
     inkscape:window-width="1920"
     inkscape:window-height="1017"
     inkscape:window-x="1272"
     inkscape:window-y="-8"
     inkscape:window-maximized="1"
     inkscape:current-layer="g881" />
  <g
     inkscape:groupmode="layer"
     inkscape:label="Image"
     id="g881">
    <path
       style="fill:#a102ed;stroke:none"
       d="m 850.33045,695.84612 c -7.83,4.1741 -8.663,20.17013 -9.005,27.97223 -1.197,27.3327 0.972,54.7429 0.961,82 0,7.903 1.339,31.121 -8.044,34.377 -12.4891,4.334 -14.4487,-21.433 -15.865,-28.416 -5.0234,-24.7694 -5.649,-50.2708 -10.8055,-74.961 -1.5703,-7.519 -4.7159,-22.088 -14.2863,-23.2176 -13.063,-1.5418 -10.6145,22.6858 -9.7137,30.2176 3.1165,26.0584 7.3977,52.111 11.6343,78 1.0959,6.697 4.3227,23.041 -4.0247,26.396 -7.2647,2.92 -12.0429,-5.008 -14.6328,-10.396 -7.8478,-16.326 -10.8853,-34.561 -18.7924,-50.9961 -2.7536,-5.7237 -11.4628,-19.7977 -19.0364,-12.4306 -5.16513,5.0243 -1.68603,15.4931 -0.314,21.4267 4.4871,19.406 13.6393,37.596 18.0649,57 2.5806,11.315 5.3331,22.575 7.3519,34 6.8481,38.756 9.797,94.417 55.4637,107.795 9.8387,2.882 19.785,4.209 30,4.205 10.462,-0.004 22.327,-1.911 32,-6.039 21.921,-9.355 31.457,-26.031 44.214,-44.871 12.023,-17.758 23.81,-35.936 38.061,-52.051 6.32,-7.147 30.77605,-25.845 20.33005,-36.695 -4.697,-4.879 -12.91805,-3.728 -18.60505,-1.393 -14.115,5.796 -21.65,17.677 -32.039,28.009 -5.539,5.508 -16.257,12.001 -20.358,1.036 -3.463,-9.262 0.262,-25.337 1.347,-34.996 3.108,-27.688 8.536,-55.291 11.125,-83 0.9,-9.6303 7.557,-34.6718 -5.09,-39.3958 -11.735,-4.383 -15.272,14.8537 -17.206,22.3958 -5.831,22.7412 -7.062,46.299 -13.267,69 -1.69,6.18 -5.68,20.466 -14.494,18.522 -9.864,-2.175 -7.018,-20.328 -7.018,-27.522 0,-28.4271 4.276,-58.815 0.576,-87 -1.161,-8.8387 -1.911,-37.8324 -18.532,-28.97223 z"
       id="path1099" />
  </g>
</svg>
