o FaceCircle
v 0 0 0
v 0.86602540378443871 0 0.49999999999999994
v 1 0 0
v 0.50000000000000011 0 0.8660254037844386
v 6.1230317691118863E-17 0 1
v -0.49999999999999978 0 0.86602540378443871
v -0.86602540378443871 0 0.49999999999999994
v -1 0 1.2246063538223773E-16
v -0.8660254037844386 0 -0.50000000000000011
v -0.50000000000000044 0 -0.86602540378443837
v -1.8369095307335659E-16 0 -1
v 0.50000000000000011 0 -0.8660254037844386
v 0.86602540378443837 0 -0.50000000000000044
vn 0 1 0
vt 0.5 0.5
vt 0.93301270189221941 0.75
vt 1 0.5
vt 0.75 0.9330127018922193
vt 0.5 1
vt 0.25000000000000011 0.93301270189221941
vt 0.066987298107780646 0.75
vt 0 0.50000000000000011
vt 0.0669872981077807 0.24999999999999994
vt 0.24999999999999978 0.066987298107780813
vt 0.49999999999999989 0
vt 0.75 0.0669872981077807
vt 0.93301270189221919 0.24999999999999978
g FaceCircle
f 1/1/1 2/2/1 3/3/1
f 1/1/1 4/4/1 2/2/1
f 1/1/1 5/5/1 4/4/1
f 1/1/1 6/6/1 5/5/1
f 1/1/1 7/7/1 6/6/1
f 1/1/1 8/8/1 7/7/1
f 1/1/1 9/9/1 8/8/1
f 1/1/1 10/10/1 9/9/1
f 1/1/1 11/11/1 10/10/1
f 1/1/1 12/12/1 11/11/1
f 1/1/1 13/13/1 12/12/1
f 1/1/1 3/3/1 13/13/1