o FaceCircle
v 0.05 0.02 0
v 0.1 0 0
v 0 0 -0.05
v 0 0.02 -0.025
v 0 0.02 0
v 0 0.02 0.025
v 0 0 0.05
v -0.45 0.02 0
v -0.6 0 0
vt 0.95 0.3
vt 1 0.5
vt 0.833333333333333 1
vt 0.866666666666667 0.55
vt 0.866666666666667 0.3
vt 0.866666666666667 0.05
vt 0.833333333333333 0
vt 0.366666666666667 0.3
vt 0 0.5
vn 0 1 0
vn 0.298142396999972 0.74535599249993 -0.596284793999944
vn 0.298142396999972 0.74535599249993 0.596284793999944
vn -0.0519875244910036 0.779812867365054 -0.623850293892044
vn -0.0519875244910036 0.779812867365054 0.623850293892044
vn -0.0705345615858598 0.705345615858598 0.705345615858598
vn -0.0705345615858598 0.705345615858598 -0.705345615858598
g FaceCircle
f 1/1/1 2/2/2 3/3/2 4/4/1
f 4/4/1 5/5/1 1/1/1
f 6/6/1 7/7/3 2/2/3 1/1/1
f 1/1/1 5/5/1 6/6/1
f 8/8/4 5/5/1 4/4/4
f 6/6/5 5/5/1 8/8/5
f 8/8/5 9/9/6 7/7/5
f 7/7/5 6/6/5 8/8/5
f 3/3/4 9/9/7 8/8/4
f 8/8/4 4/4/4 3/3/4
#h 
